<svg class="svg-icon" style="width: 1em;height: 1em;vertical-align: middle;fill: currentColor;overflow: hidden;" viewBox="0 0 1024 1024" version="1.1" xmlns="http://www.w3.org/2000/svg"><path d="M512 656.426667a218.026667 218.026667 0 0 0 79.445333 72.234666L512 808.106667l-79.445333-79.445334A215.168 215.168 0 0 0 512 656.426667m180.565333-173.354667a72.234667 72.234667 0 0 0-72.234666 72.234667 72.234667 72.234667 0 0 0 72.234666 72.234666 72.234667 72.234667 0 0 0 72.234667-72.234666c0-40.106667-32.512-72.234667-72.234667-72.234667m-361.130666 0a72.234667 72.234667 0 0 0-72.234667 72.234667 72.234667 72.234667 0 0 0 72.234667 72.234666 72.234667 72.234667 0 0 0 72.234666-72.234666c0-40.106667-32.512-72.234667-72.234666-72.234667m361.130666-90.282667a144.426667 144.426667 0 0 1 144.426667 144.469334 144.426667 144.426667 0 0 1-144.426667 144.426666 144.426667 144.426667 0 0 1-144.469333-144.426666 144.426667 144.426667 0 0 1 144.469333-144.469334m-361.130666 0a144.426667 144.426667 0 0 1 144.469333 144.469334 144.426667 144.426667 0 0 1-144.469333 144.426666 144.426667 144.426667 0 0 1-144.426667-144.426666 144.426667 144.426667 0 0 1 144.426667-144.469334M159.573333 114.773333c63.573333 133.632 17.706667 233.301333-24.917333 332.245334a217.6 217.6 0 0 0-19.84 90.282666 216.661333 216.661333 0 0 0 216.661333 216.661334c7.594667-0.341333 15.189333-0.725333 22.741334-1.792l106.922666 106.88L512 909.226667l50.944-50.218667 106.88-106.88c7.594667 1.066667 15.146667 1.450667 22.741333 1.792a216.661333 216.661333 0 0 0 216.661334-216.661333 217.6 217.6 0 0 0-19.84-90.282667c-42.624-98.944-88.490667-198.613333-24.917334-332.245333-95.36 74.410667-231.125333 133.248-352.426666 133.632-121.386667-0.341333-257.152-59.221333-352.469334-133.632z" fill="#EF5350" /></svg>